<svg xmlns="http://www.w3.org/2000/svg" xmlns:xlink="http://www.w3.org/1999/xlink" version="1.1" id="Capa_1" x="0px" y="0px" width="90px" height="90px" viewBox="0 0 90 90" enable-background="new 0 0 90 90" xml:space="preserve">
<path d="M87.5,51.877c0-13.393-9.362-39.177-22.753-39.177c-8.557,0-15.463,10.528-19.338,21.624  c-6.61-2.439-13.541-3.812-18.662-3.812C13.356,30.512,2.5,39.874,2.5,53.265c0,12.317,9.185,21.219,21.077,22.57  C10.973,75.971,2.5,76.224,2.5,76.513C2.5,76.948,21.528,77.3,45,77.3c23.472,0,42.5-0.352,42.5-0.787  c0-0.274-7.634-0.516-19.188-0.656C79.77,74.117,87.5,64.044,87.5,51.877z M48.645,35.618c3.562-10.165,9.705-19.412,16.103-19.412  c9.925,0,19.247,22.252,19.247,35.671c0,11.824-8.274,20.741-19.247,20.741c-4.399,0-8.35-1.451-11.522-3.93  c-0.001,0.001-0.003,0.001-0.004,0.002c7.219-3.938,12.702-9.252,12.702-15.426c0-7.427-7.934-13.61-17.283-17.649  C48.642,35.617,48.643,35.617,48.645,35.618z M6.006,53.265c0-10.973,8.917-19.247,20.741-19.247c13.417,0,35.67,9.322,35.67,19.247  c0,9.926-22.252,19.249-35.67,19.249C14.922,72.514,6.006,64.238,6.006,53.265z M30.846,75.772  c5.743-0.643,12.706-2.519,18.911-5.35c3.003,2.744,6.763,4.635,11.053,5.361c-4.889-0.036-10.221-0.057-15.81-0.057  C40.036,75.728,35.274,75.743,30.846,75.772z"/>
</svg>