<svg xmlns="http://www.w3.org/2000/svg" xmlns:xlink="http://www.w3.org/1999/xlink" version="1.1" id="Layer_1" x="0px" y="0px" width="100px" height="100px" viewBox="5.0 -10.0 100.0 135.0" enable-background="new 0 0 100 100" xml:space="preserve">
<path d="M77.948,77.341c-1.183,0-2.326-0.262-3.397-0.777c-1.887-0.909-3.306-2.498-3.997-4.475  c-0.527-1.507-0.582-3.102-0.176-4.61l-46.75-22.522c-1.462,1.968-3.807,3.18-6.305,3.18c-1.182,0-2.325-0.262-3.397-0.777  c-3.894-1.876-5.535-6.57-3.659-10.463c0.888-1.843,2.468-3.24,4.337-3.937c-0.63-1.912-0.508-4.011,0.382-5.859  c1.297-2.697,4.071-4.439,7.064-4.439c1.182,0,2.325,0.262,3.397,0.777c3.444,1.659,5.126,5.522,4.172,9.087l46.751,22.521  c1.462-1.967,3.807-3.18,6.304-3.18c1.182,0,2.325,0.262,3.396,0.777c1.887,0.908,3.307,2.497,3.998,4.474  c0.691,1.976,0.572,4.103-0.336,5.989c-0.892,1.85-2.457,3.253-4.344,3.951c0.622,1.894,0.515,3.994-0.377,5.847  C83.715,75.6,80.941,77.341,77.948,77.341z M23.072,41.601c0.213,0,0.429,0.047,0.634,0.146l49.138,23.672  c0.35,0.169,0.618,0.469,0.746,0.835c0.128,0.367,0.105,0.769-0.063,1.118c-0.569,1.182-0.645,2.514-0.212,3.752  c0.434,1.239,1.323,2.234,2.505,2.804c0.673,0.324,1.389,0.488,2.128,0.488c1.877,0,3.615-1.092,4.429-2.781  c0.83-1.724,0.574-3.791-0.652-5.269c-0.478-0.575-0.445-1.418,0.075-1.954c0.521-0.537,1.362-0.592,1.951-0.133l0.212,0.166  c1.366-0.373,2.514-1.317,3.135-2.608c0.569-1.182,0.645-2.515,0.211-3.754c-0.434-1.238-1.323-2.233-2.506-2.803  c-0.672-0.324-1.388-0.488-2.127-0.488c-1.876,0-3.614,1.092-4.428,2.781c-0.169,0.35-0.469,0.618-0.835,0.746  c-0.367,0.127-0.768,0.104-1.118-0.063L27.156,34.585c-0.728-0.351-1.034-1.225-0.683-1.953c1.175-2.441,0.146-5.383-2.294-6.559  c-0.672-0.324-1.388-0.488-2.127-0.488c-1.876,0-3.615,1.092-4.428,2.783c-0.622,1.29-0.646,2.775-0.088,4.076l0.26,0.062  c0.728,0.173,1.208,0.867,1.113,1.608c-0.095,0.743-0.729,1.333-1.481,1.277c0,0-0.002,0-0.002,0c-2.003,0-3.697,1.063-4.522,2.774  c-1.176,2.439-0.147,5.381,2.293,6.557c0.672,0.324,1.388,0.488,2.127,0.488c1.877,0,3.616-1.092,4.43-2.782  C22.005,41.906,22.528,41.601,23.072,41.601z"/>
<path d="M23.052,78.344c-0.872,0-1.746-0.147-2.593-0.444c-1.976-0.691-3.564-2.11-4.472-3.997c-0.891-1.85-1.013-3.947-0.383-5.857  c-1.868-0.694-3.444-2.088-4.336-3.939c-0.909-1.886-1.029-4.013-0.338-5.989s2.11-3.565,3.997-4.474  c1.888-0.909,4.014-1.029,5.99-0.337c1.507,0.527,2.79,1.479,3.716,2.738l7.854-3.784c0.727-0.351,1.603-0.044,1.953,0.684  c0.351,0.728,0.045,1.603-0.683,1.953l-9.05,4.359c-0.728,0.352-1.602,0.044-1.953-0.684c-0.57-1.183-1.565-2.072-2.804-2.505  s-2.571-0.359-3.754,0.212c-1.183,0.568-2.072,1.564-2.505,2.803c-0.433,1.238-0.357,2.571,0.212,3.754  c0.83,1.722,2.614,2.821,4.526,2.773c0.757,0.004,1.386,0.537,1.479,1.278c0.094,0.741-0.386,1.435-1.113,1.607l-0.26,0.063  c-0.558,1.3-0.534,2.785,0.087,4.075c0.569,1.183,1.565,2.072,2.803,2.505s2.572,0.356,3.753-0.211  c1.184-0.57,2.073-1.565,2.506-2.804s0.358-2.571-0.211-3.754c-0.351-0.728-0.045-1.603,0.683-1.953l17.377-8.369  c0.729-0.351,1.602-0.044,1.953,0.684s0.045,1.603-0.683,1.953l-16.181,7.793c0.407,1.51,0.352,3.104-0.175,4.612  c-0.691,1.976-2.111,3.564-3.998,4.474C25.371,78.082,24.214,78.344,23.052,78.344z"/>
<path d="M67.287,47.69c-0.544,0-1.066-0.305-1.319-0.828c-0.351-0.728-0.045-1.603,0.684-1.953l8.644-4.165  c0.349-0.168,0.751-0.191,1.118-0.063c0.366,0.128,0.667,0.397,0.835,0.747c0.569,1.183,1.564,2.072,2.802,2.505  c1.236,0.433,2.57,0.358,3.752-0.212c1.184-0.569,2.073-1.564,2.507-2.803c0.434-1.238,0.358-2.571-0.211-3.753  c-0.622-1.291-1.769-2.234-3.135-2.608l-0.213,0.166c-0.586,0.46-1.429,0.403-1.95-0.134c-0.521-0.537-0.553-1.379-0.075-1.954  c1.227-1.477,1.482-3.545,0.652-5.269c-0.568-1.182-1.564-2.071-2.803-2.504c-1.238-0.433-2.57-0.358-3.754,0.211  c-2.439,1.176-3.468,4.117-2.293,6.557c0.351,0.728,0.044,1.602-0.684,1.953l-17.279,8.324c-0.726,0.352-1.601,0.045-1.953-0.683  c-0.351-0.728-0.045-1.602,0.684-1.953l16.085-7.749c-0.953-3.563,0.729-7.426,4.171-9.085c3.891-1.874,8.588-0.234,10.463,3.66  c0.892,1.853,0.999,3.954,0.376,5.848c1.888,0.698,3.453,2.101,4.344,3.95c0.909,1.886,1.028,4.013,0.337,5.99  c-0.692,1.977-2.112,3.565-3.999,4.473c-1.885,0.91-4.011,1.029-5.987,0.338c-1.508-0.527-2.789-1.479-3.716-2.738l-7.447,3.588  C67.717,47.644,67.5,47.69,67.287,47.69z"/>
</svg>
