<svg xmlns="http://www.w3.org/2000/svg" xmlns:xlink="http://www.w3.org/1999/xlink" xmlns:a="http://ns.adobe.com/AdobeSVGViewerExtensions/3.0/" version="1.1" x="0px" y="0px" width="100px" height="100px" viewBox="-2.542 -1.74 100 100" enable-background="new -2.542 -1.74 100 100" xml:space="preserve">
<defs>
</defs>
<path d="M93.623,22.191c-0.394-0.601-0.935-0.427-1.257-0.321c-0.397,0.129-1,0.328-2.225-0.084  c-1.404-0.472-3.784-0.493-5.697-0.509c-0.855-0.008-1.891-0.017-2.323-0.085c0.032-0.044,0.07-0.095,0.104-0.14  c0.155-0.202,0.367-0.478,0.589-0.89c0.424-0.789,0.492-1.591,0.184-2.145c-0.217-0.391-0.596-0.622-1.067-0.652l-1.307-0.083  c-0.003-0.279-0.068-0.546-0.268-0.767l0.343-0.296c0.238-0.206,0.335-0.237,0.339-0.238C81,15.994,81.742,15.53,81.785,15.4  c0.458,0.565,0.953,0.637,1.393,0.701c0.3,0.043,0.61,0.088,0.993,0.293c0.854,0.459,1.835,0.197,2.784-0.056  c0.515-0.137,1.047-0.279,1.543-0.302c1.406-0.067,1.897-0.595,1.889-1.067c-0.006-0.284-0.212-0.573-0.598-0.63  c-0.069-0.127-0.159-0.404-0.223-0.597c-0.16-0.49-0.342-1.045-0.691-1.443c-0.578-0.659-2.008-1.052-4.782-1.316  c-1.616-0.15-1.979,0.539-2.184,1.199c-0.031,0.1-0.063,0.204-0.097,0.253c-0.075,0.112-0.162,0.282-0.26,0.477  c-0.23,0.461-0.594,1.234-0.992,1.154c-0.081-0.018-0.11-0.037-0.112-0.037c-0.015-0.025-0.029-0.116-0.038-0.177  c-0.045-0.287-0.15-0.958-1.141-1.021c-1.223-0.079-1.529,0.103-2.473,0.792c-0.446,0.326-0.573,0.709-0.601,0.974  c-0.021,0.208,0.017,0.393,0.071,0.563c-0.333,0.155-0.674,0.427-1.013,0.872c-0.198,0.259-0.426,0.496-0.664,0.723l-0.382-0.763  c-0.415-0.833-0.355-1.027-0.227-1.454c0.055-0.182,0.115-0.385,0.16-0.646c0.043-0.254,0.112-0.459,0.176-0.647  c0.173-0.518,0.352-1.053-0.072-1.934c-0.069-0.142-0.103-0.305-0.118-0.475c0.379-0.968,0.454-3.119,0.192-3.976  c-0.076-0.247-0.001-0.672,0.163-0.928c0.075-0.118,0.137-0.15,0.148-0.151c0.015,0,0.09,0.025,0.207,0.153  c0.277,0.3,0.618,0.452,0.922,0.433c0.642-0.023,1.112-0.614,1.567-1.185c0.235-0.296,0.479-0.603,0.691-0.751  c0.717-0.502,0.806-0.84,0.891-1.349c0.027-0.164,0.06-0.362,0.147-0.628c0.24-0.724-0.357-1.452-1.683-2.049  c-0.607-0.273-1.133-0.466-1.385-0.033l-0.221,0.396l0.361,0.266c0.057,0.142-0.065,0.667-0.139,0.981  c-0.06,0.255-0.118,0.512-0.151,0.749c-0.167-0.024-0.465-0.128-0.766-0.341c-0.289-0.205-0.409-0.393-0.417-0.466  C74.435,0.044,74,0.016,73.767,0.001c-0.145-0.009-0.496,0.028-0.63,0.56c-0.039,0.155-0.154,0.344-0.287,0.563  c-0.283,0.466-0.67,1.105-0.71,2.064c-0.018,0.443-0.021,0.774-0.022,1.042c-0.004,0.498-0.005,0.725-0.099,1.051  c-0.049,0.169-0.345,0.545-0.582,0.848c-0.452,0.575-0.879,1.119-0.905,1.609c-0.052,0.096-0.294,0.25-1.134,0.455  c0.011-0.042,0.021-0.083,0.03-0.122c0.083-0.339,0.188-0.762,0.214-1.175c0.048-0.757-0.261-1.089-0.527-1.234  c-0.52-0.282-1.254-0.062-2.243,0.675c-0.938,0.697-1.07,2.03-0.941,3.513C65.526,9.772,65,9.76,64.383,9.979  c-0.585,0.208-0.971,0.345-0.878,0.938c0.019,0.118,0.063,0.395-0.332,1.193c-0.154,0.313-0.263,0.411-0.266,0.435  c-0.091-0.048-0.261-0.26-0.345-0.365c-0.212-0.263-0.45-0.514-0.78-0.53c-0.192,0.002-0.367,0.094-0.49,0.256  c-0.337,0.442-0.302,1.008-0.265,1.607c0.018,0.29,0.038,0.609,0.017,0.95c-0.032,0.509-0.233,0.691-0.812,1.142  c-0.183,0.143-0.382,0.298-0.592,0.486c-0.539,0.479-0.985,1.286-1.234,2.085l-0.01-0.006c-0.63,1.079-1.002,1.308-1.104,1.353  c-0.243-0.071-0.313-0.143-0.32-0.143c0,0-0.001,0-0.001,0c0.002-0.13,0.31-0.482,0.554-0.633c0.393-0.243,0.661-0.984,1.199-3.305  l0.023-0.104c0.128-0.54,0.129-0.541,0.895-0.464c0.434,0.046,0.664-0.153,0.769-0.273c0.373-0.431,0.202-1.119,0.037-1.785  c-0.056-0.228-0.112-0.44-0.122-0.594c-0.016-0.265-0.13-0.495-0.329-0.665c-0.488-0.415-1.359-0.364-2.37-0.263  c-0.009,0.001-0.017,0.002-0.025,0.002c-0.003-0.04-0.005-0.083-0.007-0.12c-0.009-0.179-0.021-0.41-0.102-0.66  c0.153,0.023,0.313,0.051,0.454,0.075c0.438,0.076,0.937,0.161,1.369,0.188c0.446,0.029,0.774-0.094,0.979-0.365  c0.369-0.489,0.126-1.172-0.109-1.833c-0.083-0.233-0.167-0.458-0.2-0.643c-0.122-0.682-0.699-1.167-1.31-1.682  c-0.344-0.289-0.698-0.587-1.014-0.943c0.018-0.196,0.011-0.394-0.015-0.577c-0.087-0.634-0.445-0.771-0.595-0.8  c-0.256-0.051-0.504,0.07-0.64,0.304c-0.161,0.279-0.174,0.753,0.19,1.329c-0.018,0.055-0.034,0.093-0.046,0.107  c-0.023-0.002-0.116-0.04-0.264-0.179c-0.764-0.724-1.243-0.809-1.834-0.316c-0.06,0.049-0.124,0.106-0.205,0.153  c-0.097,0.056-0.199,0.122-0.31,0.192C53.5,5.813,53,6.137,52.289,6.095c-1.317-0.083-1.672,0.387-1.945,1.409  c-0.226,0.843-0.532,3.106-0.56,3.53c-0.026,0.412,0.039,1.54,1.215,3.11c0.111,0.148,0.174,0.25,0.208,0.315  c-0.042,0.02-0.089,0.042-0.129,0.06c-0.364,0.166-0.916,0.417-1.232,1.121c-0.2,0.446-0.32,0.501-0.56,0.611  c-0.3,0.138-0.702,0.323-1.184,1.043c0.072-1.225-0.429-1.728-1.299-2.143c-0.102-0.146,0.109-0.859,0.21-1.201  c0.121-0.408,0.245-0.83,0.269-1.207c0.124-1.923-1.05-2.376-1.76-2.475c-1.059-0.152-1.189,0.646-1.232,0.907  c-0.012,0.07-0.029,0.176-0.039,0.196c0,0-0.031,0.02-0.126,0.028c-0.191,0.022-0.366-0.141-0.488-0.321  c-0.012-0.234-0.062-0.447-0.17-0.634c-0.26-0.449-0.629-0.333-0.7-0.303c-0.13,0.052-0.42,0.229-0.298,0.745  c0.034,0.14,0.089,0.296,0.167,0.454c-0.018,0.25-0.072,0.564-0.117,0.823c-0.063,0.361-0.127,0.741-0.15,1.105  c-0.039,0.596-0.002,1.688,0.676,2.308c0.27,0.247,0.753,0.515,1.539,0.393c0.011-0.002,0.021-0.003,0.031-0.004  c-0.054,0.233-0.262,0.652-0.514,1.043c-0.045,0.003-0.094-0.01-0.138-0.001c-0.299,0.063-0.799,0.321-0.786,1.331  c0.013,1.049,0.329,2.521,0.634,3.945c0.291,1.356,0.62,2.893,0.511,3.464c-0.09,0.473-0.085,1.683-0.031,3.471  c-0.376,0.007-0.838-0.075-1.199-0.161c0.674-2.951-0.673-4.552-1.415-5.432c-0.159-0.188-0.376-0.447-0.4-0.532  c-0.31-2.324-0.47-2.766-1.008-2.78c-0.531-0.04-0.62,0.556-0.66,0.769c-0.193,1.015-0.817,1.513-2.863,2.696  c-2.017,1.166-2.368,3.642-2.624,5.451l-0.083,0.567c-0.245,1.575,2.425,2.834,4.571,3.846c0.641,0.302,1.438,0.678,1.572,0.815  c0.203,0.317,0.166,2.064,0.143,3.108c-0.035,1.633-0.044,2.658,0.2,3.131c0.23,0.448,0.61,0.686,0.916,0.876  c0.118,0.074,0.314,0.197,0.34,0.251c0,0,0.007,0.063-0.077,0.223c-0.567,1.083-2.662,4.282-4.023,5.069  c-0.76,0.439-2.155,1.934-3.77,3.665c-1.75,1.877-3.735,4.004-4.855,4.678c-1.478,0.89-6.622,7.565-12.216,14.921  c-1.877,2.468-3.36,4.417-3.88,5.012C11.223,77.37,0.701,91.156,0.254,91.742L0,92.075l0.283,0.309  c0.843,0.919,3.479,3.637,5.15,3.637c0.208,0,0.402-0.042,0.575-0.136c0.906-0.489,3.903-4.717,8.372-11.109  c1.815-2.596,3.382-4.838,4.175-5.853c0.52-0.664,1.373-1.732,2.406-3.026c3.635-4.552,9.129-11.432,10.839-14.111  c0.562-0.88,2.975-3.419,5.309-5.875c2.649-2.787,5.386-5.666,6.422-7.124c0.392-0.126,1.622-0.421,3.001,0.258  c0.478,0.236,0.821,0.606,1.218,1.034c0.978,1.054,2.194,2.363,5.998,1.88c4.228-0.54,6.379-1.666,6.77-3.543l0.023-0.112  c0.189-0.896,0.085-1.125-0.699-1.529c-0.238-0.123-0.578-0.297-1.053-0.597c-0.495-0.313-0.969-0.722-1.428-1.146  c1.011,0.198,2.313,0.385,3.631,0.385c1.754,0,3.536-0.332,4.688-1.409c0.516-0.482,1.042-0.952,1.551-1.407  c2.458-2.195,4.399-3.93,3.445-5.383c-0.975-1.491-1.778-2.351-2.866-3.066c-0.81-0.536-0.997-1.95-0.739-3.122  c0.47-0.104,0.953-0.2,1.458-0.273c1.322-0.194,1.48-1.938,1.608-3.34c0.044-0.479,0.11-1.204,0.221-1.354  c0.05-0.039,0.134-0.08,0.118-0.099c0.001,0.001,0.153,0.155,0.152,0.911c-0.001,0.729-0.345,1.553-0.648,2.279  c-0.378,0.906-0.705,1.688-0.321,2.254c0.331,0.489,0.979,0.475,1.188,0.476c2.277-0.032,6.081-0.847,6.592-2.897  c0.233-0.939,0.123-1.678,0.034-2.271c-0.066-0.445-0.091-0.689-0.031-0.868c0.909,0.092,2.711,0.39,3.615,1.041  c0.632,0.454,1.699,0.651,2.839,0.651c1.721,0,3.606-0.451,4.402-1.152c0.179-0.157,0.343-0.307,0.498-0.448  c0.873-0.798,1.354-1.237,2.58-1.366c1.187-0.123,2.041-0.559,2.344-1.195C93.904,22.989,93.87,22.568,93.623,22.191z   M82.447,13.359c0.075-0.15,0.139-0.282,0.195-0.367c0.115-0.169,0.172-0.353,0.222-0.514c0.118-0.38,0.184-0.588,1.135-0.5  c2.943,0.28,3.867,0.688,4.124,0.98c0.215,0.244,0.362,0.696,0.493,1.094c0.108,0.333,0.219,0.672,0.393,0.917  c-0.141,0.03-0.324,0.056-0.558,0.067c-0.604,0.028-1.188,0.184-1.754,0.335c-0.796,0.212-1.549,0.413-2.054,0.141  c-0.538-0.288-0.973-0.351-1.322-0.401c-0.414-0.06-0.586-0.085-0.826-0.431c-0.184-0.264-0.371-0.394-0.543-0.449  C82.157,13.938,82.317,13.617,82.447,13.359z M77.453,14.381c0.758-0.553,0.834-0.611,1.752-0.553c0.13,0.009,0.18,0.03,0.187,0.024  c0.011,0.032,0.022,0.105,0.03,0.155c0.044,0.281,0.136,0.865,0.928,1.036c0.092,0.02,0.181,0.03,0.266,0.032  c-0.249,0.109-0.459,0.291-0.57,0.387l-0.619,0.536c-0.211-0.096-0.428-0.215-0.656-0.353c-0.412-0.248-0.925-0.553-1.488-0.632  c-0.053-0.093-0.103-0.21-0.09-0.316C77.195,14.663,77.206,14.561,77.453,14.381z M67.071,12.752l-0.06-0.321  c-0.06-0.344-0.108-0.676-0.146-0.997c0.039-0.244,0.078-0.503,0.114-0.799l0.037-0.301l-0.249-0.171  c-0.056-1.534,0.181-2.637,0.7-3.022c0.824-0.612,1.141-0.599,1.148-0.615c0.014,0.026,0.04,0.12,0.028,0.308  c-0.021,0.324-0.109,0.683-0.188,1c-0.144,0.583-0.247,1.004,0.056,1.301c0.077,0.075,0.294,0.238,0.633,0.147l0.246-0.058  c0.776-0.176,2.075-0.47,2.133-1.397c0.013-0.204,0.442-0.75,0.699-1.077c0.351-0.447,0.654-0.833,0.757-1.19  c0.132-0.458,0.134-0.782,0.138-1.32c0.002-0.259,0.005-0.58,0.022-1.008c0.025-0.63,0.248-1.057,0.483-1.452  c0.016,0.094,0.028,0.439,0.04,0.537c0.102,0.91,1.471,1.946,2.252,1.946c0.003,0,0.006,0,0.009,0c0.499,0,0.85-0.55,0.894-1.007  c0.022-0.234,0.086-0.625,0.148-0.89c0.066-0.288,0.135-0.64,0.163-0.914c0.467,0.234,0.958,0.527,0.979,0.718  c-0.109,0.329-0.151,0.56-0.185,0.762c-0.058,0.345-0.068,0.399-0.479,0.687c-0.33,0.231-0.619,0.591-0.899,0.943  c-0.224,0.28-0.64,0.8-0.821,0.807c0.002,0.001-0.071-0.026-0.149-0.112c-0.442-0.479-0.986-0.607-1.457-0.336  c-0.688,0.395-0.972,1.524-0.755,2.232c0.111,0.363,0.135,1.09,0.094,1.791c-0.103,0.255-0.343,0.954-0.338,1.713  c-0.154,0.298-0.196,0.51-0.222,0.666c-0.027,0.165-0.044,0.265-0.376,0.609c-0.469,0.484-0.49,1.033-0.507,1.434  c-0.017,0.421-0.023,0.423-0.206,0.47c-0.521,0.132-0.891,0.322-1.152,0.498c0.036-0.366-0.04-0.731-0.108-1.057  c-0.067-0.323-0.138-0.658-0.116-0.992c0.03-0.474,0.204-0.601,0.468-0.792c0.201-0.146,0.265-0.628,0.394-0.958  c0.114-0.265,0.844-1.33,1.708-2.104l-0.205-0.388c-0.601,0.537-2.02,1.847-2.247,2.425c-0.023,0.061-0.123,0.133-0.239,0.217  c-0.324,0.237-0.815,0.595-0.876,1.537c-0.03,0.47,0.058,0.89,0.136,1.261c0.14,0.668,0.16,0.906-0.136,1.157l-0.812,0.685  c-1.038,0.468-1.188,1.079-1.325,1.671c-0.063,0.268-0.127,0.544-0.285,0.856c-0.332,0.658-0.661,0.647-1.579,0.513l-0.218-0.031  c-0.422-0.058-0.488-0.203-0.686-0.634c-0.037-0.081-0.077-0.164-0.119-0.248c0.23,0.07,0.483,0.123,0.742,0.123  c0.229,0,0.464-0.042,0.689-0.149c0.438-0.208,0.75-0.617,0.931-1.219C67.354,14.255,67.235,13.625,67.071,12.752z M73.501,12.323  c0,0.189-0.053,0.365-0.133,0.602c-0.077,0.231-0.16,0.485-0.213,0.797c-0.036,0.211-0.086,0.376-0.131,0.523  c-0.064,0.21-0.112,0.403-0.13,0.607c-0.038-0.045-0.059-0.101-0.107-0.139c-0.068-0.053-0.16-0.095-0.265-0.127  c0.449-0.322,0.478-0.842,0.491-1.184c0.014-0.353,0.032-0.579,0.226-0.779C73.348,12.511,73.428,12.416,73.501,12.323z   M65.814,15.916c-0.096,0.318-0.23,0.521-0.401,0.602c-0.326,0.153-0.851-0.066-1.198-0.209c-0.032-0.013-0.061-0.024-0.092-0.037  c0.027-0.151,0.064-0.323,0.115-0.541c0.067-0.287,0.144-0.613,0.212-0.997c0.167-0.93,0.653-1.002,1.153-0.942  c0.15,0.018,0.355,0.041,0.571-0.208C66.212,14.13,66.15,14.791,65.814,15.916z M44.428,14.979c-0.47,0.076-0.651-0.089-0.71-0.143  c-0.266-0.243-0.398-0.806-0.353-1.505c0.021-0.331,0.082-0.673,0.138-1c0.004-0.021,0.007-0.041,0.011-0.061  c0.206,0.098,0.443,0.148,0.698,0.124c0.901-0.08,1.015-0.764,1.064-1.055c0.004-0.027,0.01-0.06,0.016-0.09  c0.024,0.001,0.054,0.003,0.092,0.009c0.51,0.071,0.972,0.292,0.9,1.421c-0.017,0.266-0.125,0.633-0.23,0.988  c-0.258,0.873-0.579,1.96,0.329,2.392c0.569,0.271,0.854,0.407,0.678,1.565c-0.137,0.894-0.024,3.106,0.816,3.336  c0.035,0.01,0.093,0.022,0.164,0.022c0.192,0,0.479-0.088,0.666-0.548c0.238-0.59,0.068-0.987-0.056-1.277  c-0.124-0.289-0.214-0.497,0.179-1.143c0.38-0.627,0.62-0.737,0.874-0.854c0.397-0.183,0.727-0.38,1.055-1.11  c0.162-0.359,0.44-0.486,0.735-0.621c0.28-0.128,0.629-0.287,0.73-0.684c0.106-0.417-0.154-0.841-0.424-1.201  c-1.004-1.34-1.033-2.211-1.018-2.446c0.024-0.38,0.325-2.579,0.528-3.336c0.177-0.664,0.197-0.719,0.914-0.669  c1.023,0.063,1.773-0.411,2.264-0.727c0.095-0.061,0.183-0.118,0.268-0.167c0.137-0.08,0.247-0.169,0.346-0.251  c0.03-0.026,0.069-0.058,0.064-0.074c0.049,0.023,0.179,0.099,0.441,0.348c0.629,0.597,1.13,0.476,1.373,0.351  c0.111-0.058,0.207-0.134,0.29-0.226c0.258,0.25,0.521,0.472,0.763,0.674c0.488,0.412,0.91,0.767,0.969,1.094  c0.045,0.248,0.141,0.517,0.242,0.801c0.097,0.272,0.277,0.778,0.3,0.855c-0.001,0-0.045,0.015-0.162,0.009  C59,9.756,58.531,9.675,58.117,9.604c-1.031-0.178-1.597-0.275-1.853,0.182c-0.081,0.145-0.167,0.443,0.164,0.822  c0.136,0.155,0.154,0.336,0.169,0.618c0.014,0.276,0.031,0.621,0.315,0.863c0.196,0.169,0.466,0.234,0.816,0.197  c0.352-0.036,1.422-0.143,1.6-0.007c0.014,0.223,0.079,0.491,0.149,0.774c0.056,0.222,0.148,0.598,0.158,0.813  c-0.835-0.08-1.547-0.096-1.861,1.242l-0.024,0.106c-0.139,0.601-0.563,2.43-0.749,2.679c-0.012,0.007-1.14,0.727-1.021,1.618  c0.042,0.311,0.248,0.727,0.989,0.956c0.108,0.049,0.278,0.092,0.506,0.041c0.253-0.055,0.515-0.224,0.786-0.488  c0.029,0.233-0.029,0.532-0.114,0.887c-0.147,0.609-0.329,1.367-0.094,2.224c0.354,1.28-0.009,1.901-0.078,2.003  c-0.113,0.143-0.839,0.806-1.757,1.624c0.018-0.125,0.052-0.25,0.053-0.376c0.026-2.993-0.271-4.894-0.903-5.848  c0.006-0.418-0.019-1.624-0.445-2.596c-0.22-0.498-0.193-0.551-0.105-0.729c0.077-0.156,0.183-0.37,0.249-0.721  c0.064-0.338,0.244-0.424,1.058-0.676c0.211-0.065,0.44-0.137,0.688-0.225c0.512-0.184,0.7-0.513,0.769-0.756  c0.227-0.811-0.557-1.776-1.247-2.628l-0.119-0.147c-0.375-0.466-0.797-0.569-1.084-0.573c-0.751-0.001-1.375,0.668-1.441,0.747  l0.262,0.222c0.105-0.124,0.794-0.287,1.038-0.287c0.05,0.014,0.284,0.316,0.446,0.518l0.122,0.15  c0.343,0.424,1.147,1.417,1.061,1.729c-0.004,0.012-0.043,0.048-0.143,0.084c-0.233,0.083-0.449,0.15-0.647,0.211  c-0.804,0.249-1.563,0.483-1.744,1.446c-0.041,0.216-0.101,0.336-0.163,0.463c-0.227,0.458-0.265,0.779,0.087,1.575  c0.205,0.466,0.294,1.027,0.333,1.479c-0.031-0.004-0.058-0.021-0.089-0.023c-0.261-0.017-0.446-0.056-0.59-0.086  c-0.892-0.184-1.063,0.086-2.043,1.576c-0.607,0.926-0.986,1.381-1.353,1.821c-0.385,0.461-0.747,0.897-1.308,1.785  c-0.74,1.173-0.771,1.265-0.952,2.101c-0.04,0.188-0.09,0.42-0.163,0.723c-0.018-0.615-0.084-1.287-0.23-1.987l1.479-2.87  l-0.563-0.18c-0.761-0.243-1.36-2.328-1.586-3.112c-0.084-0.291-0.15-0.514-0.197-0.623c-0.116-0.269-0.859-1.148-1.657-1.631  c0.378-0.628,0.727-1.441,0.405-1.961C45.356,15.129,45.06,14.882,44.428,14.979z M42,44.073l0.326-1.098  c0.112-0.189,0.201-0.348,0.262-0.464c0.552-1.054-0.209-1.53-0.618-1.787c-0.233-0.146-0.453-0.283-0.558-0.488  c-0.14-0.279-0.109-1.706-0.088-2.65c0.048-2.219,0.026-3.315-0.384-3.781c-0.247-0.28-0.823-0.56-1.904-1.069  c-1.344-0.634-4.139-1.952-4.009-2.789l0.085-0.581c0.24-1.694,0.539-3.803,2.134-4.725c1.407-0.813,2.379-1.411,2.918-2.267  c0.037,0.237,0.077,0.517,0.121,0.849c0.048,0.356,0.303,0.66,0.626,1.043c0.753,0.895,1.891,2.247,1.091,5l-0.136,0.468  l0.464,0.148c0.125,0.04,1.136,0.353,1.993,0.336c0.026,0.735,0.057,1.542,0.092,2.422c0.085,2.137,0.166,4.155,0.123,4.82  c-0.02,0.312-0.023,0.637-0.026,0.98c-0.014,1.447-0.029,3.087-1.314,5.519c-1.417,2.677-5.16,6.142-6,6.901  c-0.016-0.005-0.028-0.009-0.033-0.012c-0.001-0.005-0.116-0.487,1.545-2.109l0.185-0.181C41.464,46.049,41.279,45.688,42,44.073z   M76.81,24.985c-0.493,0.541-0.432,1.162-0.343,1.771l-1.227,0.946c-0.952,0.734-1.205,0.876-1.624,1.11  c-0.177,0.099-0.381,0.213-0.667,0.387c0.08-0.344,0.288-0.897,0.509-2.017c0.23-1.169,1.379-1.33,2.126-1.196  c0.17,0.031,0.115-0.29,0.115-0.29c-0.101-0.006-0.218-0.029-0.347-0.052c-0.648-0.116-2.001-0.362-2.625,1.174  c-0.903,2.219-1.033,3.018-0.557,3.42c0.128,0.108,0.275,0.162,0.441,0.162c0.197,0,0.421-0.077,0.668-0.231  c0.377-0.234,0.619-0.37,0.824-0.484c0.443-0.248,0.736-0.412,1.747-1.191l0.716-0.552c-0.006,0.251-0.028,0.702-0.101,0.992  c-0.336,1.348-3.488,2.327-5.635,2.327c-0.011,0-0.021,0-0.031,0c-0.223,0-0.296-0.218-0.312-0.221  c-0.058-0.186,0.226-0.957,0.413-1.407c0.34-0.813,0.725-1.782,0.726-2.711c0-0.364,0.001-1.494-0.71-1.83  c-0.569-0.268-1.132,0.157-1.149,0.175c-0.467,0.306-0.534,1.04-0.628,2.064c-0.085,0.94-0.215,2.358-0.757,2.438  c-5.216,0.764-8.241,3.726-8.376,3.843l0.234,0.27c0.025-0.022,2.267-1.616,5.769-2.59c-0.144,1.094,0.031,2.262,0.629,3.077  c-0.021,0.551-0.201,2.579-1.717,3.014c-0.96,0.274-1.844,0.694-2.624,1.065c-1.02,0.484-1.9,0.903-2.721,0.934  c-0.46,0.014-0.854-0.004-1.208-0.023c-0.898-0.045-1.679-0.087-2.749,0.489c-0.765,0.411-1.317,0.485-2.018,0.58  c-0.427,0.058-0.911,0.123-1.491,0.276c-0.913,0.24-1.335,0.583-1.707,0.885c-0.275,0.224-0.514,0.417-0.972,0.574  c-0.313,0.107-0.649,0.175-0.974,0.24c-0.865,0.174-1.844,0.371-2.348,1.398c-0.504,1.025-1.297,2.056-1.307,2.065l0.286,0.325  c0.045-0.04,1.147-0.91,1.742-2.118c0.274-0.557,0.955-0.515,1.824-0.689c0.356-0.072,0.725-0.146,1.101-0.274  c0.626-0.214,0.973-0.496,1.278-0.744c0.336-0.273,0.626-0.509,1.33-0.695c0.521-0.137,0.954-0.196,1.371-0.252  c0.737-0.1,1.434-0.194,2.357-0.69c0.824-0.444,1.382-0.415,2.225-0.372c0.38,0.02,0.794,0.041,1.295,0.023  c1.027-0.038,2.041-0.52,3.114-1.029c0.781-0.371,1.589-0.755,2.47-1.007c1.649-0.473,2.186-2.082,2.359-3.149  c0.826,0.601,1.473,1.333,2.281,2.57c0.482,0.734-1.514,2.517-3.274,4.089c-0.515,0.459-1.047,0.935-1.568,1.422  c-2.369,2.217-8.444,0.569-9.16,0.364c-0.573-0.479-1.158-0.877-1.811-1.052c-1.408-0.376-2.8,0.479-3.918,1.167  c-0.325,0.2-0.629,0.388-0.901,0.521c-0.448,0.219-0.863,0.736-1.311,1.025c-0.615,0.397-1.429,0.91-1.796,0.889l-0.022,0.344  c0.684,0.045,1.302-0.263,2.193-0.837c0.424-0.273,0.979-0.329,1.375-0.522c0.298-0.146,0.63-0.349,0.985-0.568  c1.007-0.618,2.147-1.316,3.137-1.053c0.808,0.216,1.599,0.966,2.437,1.761c0.64,0.607,1.301,1.234,2.05,1.707  c0.509,0.322,0.873,0.509,1.129,0.641c0.085,0.043,0.177,0.091,0.239,0.127c-0.012,0.078-0.036,0.194-0.061,0.307l-0.023,0.114  c-0.106,0.508-0.428,2.054-5.918,2.755c-3.295,0.421-4.23-0.59-5.138-1.567c-0.425-0.459-0.865-0.934-1.509-1.251  c-2.063-1.018-3.881-0.271-3.957-0.239l-0.137,0.058l-0.083,0.123c-0.908,1.341-3.833,4.417-6.413,7.132  c-2.583,2.718-4.814,5.064-5.427,6.026c-1.682,2.634-7.375,9.765-10.778,14.024c-1.036,1.298-1.891,2.368-2.412,3.035  c-0.81,1.035-2.384,3.287-4.207,5.895c-2.886,4.129-7.248,10.369-8.027,10.803c-0.508,0.278-2.432-1.105-4.228-2.991  c1.661-2.174,10.84-14.179,12.406-15.963c0.543-0.621,2.035-2.582,3.924-5.065c3.927-5.163,10.5-13.805,11.936-14.669  c1.24-0.747,3.188-2.834,5.071-4.854c1.429-1.532,2.907-3.117,3.539-3.481c1.078-0.624,2.379-2.306,3.306-3.681  c-0.525,1.194-0.606,1.423-2.923,3.689l-0.542,0.417c-1.526,1.491-2.082,2.284-1.78,3.012c0.261,0.629,0.994,0.842,1.116,0.842  c0.004,0,0.007,0,0.009,0l0.185-0.189l0.331-0.383c0.192-0.168,4.521-4.042,6.2-7.213c1.399-2.647,1.417-4.516,1.431-6  c0.003-0.324,0.006-0.643,0.024-0.938c0.045-0.717-0.032-2.672-0.122-4.929c-0.106-2.671-0.239-5.999-0.111-6.672  c0.147-0.771-0.16-2.205-0.516-3.863c-0.295-1.376-0.6-2.8-0.612-3.75c-0.003-0.212,0.025-0.314,0.018-0.34  c0.368,0.018,1.457,0.998,1.635,1.357c0.038,0.088,0.087,0.27,0.155,0.505c0.396,1.378,0.885,2.857,1.729,3.513l-1.152,2.235  l0.04,0.177c0.591,2.619-0.064,4.899-0.071,4.922l-0.029,0.098l0.012,0.101c0.048,0.417,0.278,0.693,0.601,0.718  c0.542,0.046,0.845-0.487,1.367-2.362c0.291-1.044,0.419-1.641,0.506-2.042c0.156-0.726,0.156-0.726,0.819-1.777  c0.525-0.832,0.867-1.243,1.23-1.679c0.366-0.44,0.781-0.939,1.42-1.912c0.411-0.626,0.736-1.12,0.808-1.18  c0.008,0.008,0.12,0.018,0.195,0.034c0.178,0.037,0.407,0.084,0.73,0.105c0.42,0.027,1.121,1.231,1.083,5.577  c-0.015,1.579-2.16,3.384-3.728,4.703c-1.362,1.146-2.019,1.724-2.058,2.336c-0.1,1.581,1.143,1.866,2.863,2.259  c0.298,0.068,0.499,0.181,0.513,0.289c0.032,0.263-0.498,1.258-3.304,2.682c-3.794,1.928-5.495,6.967-5.583,7.173l0.503,0.215  c0.021-0.047,2.059-4.731,5.533-6.497c1.258-0.638,3.201-1.784,3.718-2.975c0.101,0.05,0.2,0.099,0.337,0.152  c0.476,0.184,0.649,0.248,0.825,0.248c0.244,0,0.387-0.133,0.457-0.194c0.12-0.05,0.337-0.186,0.435-0.532  c0.166-0.591-0.063-1.788-0.959-3.019l-0.216-0.297l-0.348,0.117c-0.535,0.179-1.432,0.776-1.309,1.781  c-0.113-0.044-0.237-0.085-0.38-0.118c-1.875-0.43-2.129-0.578-2.09-1.205c0.073-0.278,1.017-1.072,1.705-1.651  c0.964-0.811,2.044-1.729,2.854-2.717c1.31-1.139,3.53-3.091,3.752-3.417c0.216-0.316,0.671-1.226,0.224-2.843  c-0.167-0.608-0.03-1.175,0.102-1.724c0.125-0.519,0.243-1.009,0.104-1.499c-0.171-0.61,0.36-2.166,1.082-2.808  c0.193-0.171,0.376-0.314,0.543-0.444c0.582-0.454,1.132-0.883,1.194-1.867c0.025-0.395,0.003-0.756-0.017-1.075  c-0.009-0.131-0.017-0.26-0.02-0.38c0.242,0.265,0.578,0.516,0.988,0.473c0.619-0.068,0.963-0.762,1.075-0.991  c0.372-0.754,0.457-1.206,0.445-1.56c0.056-0.02,0.122-0.043,0.202-0.071c0.541-0.191,0.968-0.129,1.221-0.049  c-0.12,0.822-0.3,1.604-0.438,1.91c-1.093-0.045-1.822,0.594-2.035,1.777c-0.064,0.364-0.138,0.673-0.201,0.945  c-0.093,0.399-0.171,0.58-0.179,0.904c0.009,0.824,0.081,0.716,0.281,1.022c0.108,0.165,0.183,0.429,0.253,0.583  c0.208,0.456,0.474,1.063,1.334,1.23c-0.385,0.297-0.774,0.68-1.044,1.068c-0.18,0.26-0.262,0.52-0.295,0.738  c-0.052-0.023-0.097-0.05-0.135-0.055c-1.896-0.241-2.774-1.046-2.845-1.413l-0.393,0.077c0.169,0.881,1.251,1.538,2.824,2.252  c0.456,0.207,0.747,0.339,0.982,0.339c0.12,0,0.225-0.033,0.329-0.108c0.272-0.196,0.241-0.506,0.226-0.655  c-0.018-0.17-0.035-0.345,0.128-0.581c0.516-0.743,1.695-1.411,1.913-1.53c0.47-0.108,0.916-0.399,1.259-1.076  c0.212-0.42,0.298-0.787,0.366-1.081c0.122-0.525,0.173-0.743,0.823-1.017c0.681-0.287,1.271-0.328,1.791-0.363  c0.438-0.03,0.851-0.058,1.215-0.237c0.021-0.011,0.041-0.02,0.059-0.027c0.009,0.106,0.004,0.298-0.063,0.623  c-0.198,0.942-1.451,2.211-2.028,2.514c-0.103,0.054-0.148,0.07-0.148,0.072c-0.246,0.019-0.324,0.1-0.692,0.479L68.75,19.75  c-0.45,0.458-0.892,0.782-1.282,1.067c-0.659,0.483-1.229,0.9-1.277,1.657c-0.054,0.839-0.101,1.327-0.436,1.612  c-0.131,0.111-0.234,0.225-0.333,0.336c-0.249,0.28-0.377,0.459-1.397,0.451c-0.258-0.003-0.829,0.207-1.112,0.215  c-1.755,0.045-2.289-0.078-2.906-1.188l-0.223,0.213c0.065,1.862,2.024,1.812,3.444,1.771c0.269-0.007,0.532-0.012,0.783-0.011  c1.359,0.015,1.752-0.33,2.158-0.786c0.07-0.079,0.142-0.161,0.234-0.24c0.674-0.573,0.728-1.416,0.785-2.314  c0.018-0.271,0.311-0.499,0.871-0.909c0.399-0.293,0.896-0.657,1.403-1.174l0.48-0.493c0.092-0.094,0.152-0.158,0.195-0.201  c0.099-0.024,0.219-0.07,0.392-0.161c0.714-0.374,2.259-1.839,2.543-3.195c0.023-0.111,0.042-0.236,0.059-0.361  c0.052,0.123,0.111,0.254,0.183,0.396l0.492,0.985c-0.318,0.247-0.64,0.481-0.947,0.7c-0.966,0.686-1.729,1.228-1.797,1.945  c-0.073,0.783-1.636,3.645-2.624,4.114c-0.336,0.161-0.656,0.281-0.941,0.389c-0.759,0.287-1.477,0.558-1.525,1.33  c-0.025,0.384,0.042,0.748,0.106,1.1c0.056,0.305,0.108,0.593,0.092,0.854c-0.007,0.106-0.003,0.2,0.006,0.313  c-0.298,0.09-0.984,0.203-1.27,0.25c-0.324,0.053-0.728,0.084-0.813-0.072c-0.042-0.079-0.172-0.318-0.467-0.347  c-0.334-0.034-0.446,0.096-1.148,0.942c-1.356,1.635-2.332,2.623-3.309,2.835c-1.052,0.229-1.606,0.577-1.746,1.095  c-0.072,0.269-0.052,0.687,0.458,1.151l0.192-0.211c-0.093-0.084-0.302-0.339-0.114-0.693c0.06-0.057,0.722-0.212,1.423-0.364  c1.265-0.276,2.334-1.328,3.865-3.174c0.112-0.136,0.216-0.26,0.303-0.363c0.334,0.245,0.821,0.304,1.518,0.188  c1.557-0.256,2.201-0.362,2.108-1.272C67.17,28.07,67.162,28,67.167,27.916c0.024-0.383-0.042-0.746-0.106-1.097  c-0.056-0.306-0.108-0.594-0.092-0.855c0.008-0.128,0.492-0.312,0.881-0.458c0.309-0.116,0.655-0.248,1.019-0.421  c1.391-0.661,3.086-3.831,3.189-4.923c0.024-0.261,0.808-0.817,1.38-1.223c0.833-0.592,1.87-1.329,2.611-2.3  c0.732-0.96,1.205-0.735,2.205-0.134c0.352,0.211,0.715,0.429,1.108,0.555c0.333,0.106,0.368,0.117,0.105,1.021  c-0.13,0.445-0.29,0.998-0.331,1.64c-0.027,0.422-0.092,0.573-0.082,0.597c-0.055-0.002-0.168-0.029-0.246-0.048  c-0.217-0.052-0.484-0.118-0.777-0.063c-0.712,0.129-2.418,0.693-3.122,1.07c-0.42,0.226-0.565,0.708-0.362,1.201  c0.308,0.742,1.426,1.566,2.747,1.174c0.428-0.126,0.714-0.194,0.917-0.242c0.613-0.146,0.721-0.212,1.153-0.716  c0.109-0.129,0.411-0.225,0.746-0.143c0.262,0.063,0.728,0.278,0.905,1.016c0.027,0.113,0.002,0.151-0.013,0.171  c-0.213,0.314-1.309,0.469-2.034,0.571C78.021,24.439,77.201,24.555,76.81,24.985z M54.25,34.151  c0.528,0.854,0.609,1.528,0.582,1.758c-0.009,0.005-0.018,0.01-0.025,0.016c-0.086-0.03-0.206-0.078-0.379-0.145  c-0.202-0.078-0.297-0.124-0.326-0.124c-0.006,0-0.009,0.002-0.009,0.007c-0.009-0.038-0.01-0.082-0.016-0.136  c-0.017-0.174-0.039-0.408-0.128-0.745C53.873,34.49,54.059,34.282,54.25,34.151z M92.816,22.948  c-0.087,0.184-0.511,0.522-1.545,0.629c-1.553,0.163-2.258,0.807-3.15,1.623c-0.15,0.138-0.311,0.283-0.483,0.436  c-0.997,0.877-4.81,1.293-5.997,0.439c-0.546-0.394-1.292-0.667-2.016-0.855c0.935-0.144,1.814-0.348,2.206-0.922  c0.188-0.278,0.243-0.612,0.158-0.968c-0.222-0.917-0.821-1.557-1.645-1.754c-0.678-0.164-1.359,0.021-1.738,0.465  c-0.265,0.308-0.265,0.308-0.625,0.393c-0.215,0.051-0.518,0.122-0.971,0.256c-0.573,0.171-1.023-0.083-1.189-0.202  c-0.2-0.144-0.303-0.292-0.344-0.382c0.664-0.327,2.139-0.811,2.735-0.919c0.088-0.013,0.225,0.019,0.361,0.052  c0.29,0.071,0.688,0.167,1.044-0.097c0.313-0.229,0.472-0.649,0.518-1.359c0.034-0.532,0.172-1.006,0.293-1.425  c0.008-0.027,0.016-0.057,0.023-0.084l1.415,0.09c0.164,0.01,0.222,0.077,0.258,0.14c0.112,0.203,0.097,0.648-0.191,1.186  c-0.184,0.34-0.359,0.57-0.501,0.755c-0.266,0.347-0.597,0.778-0.18,1.385c0.282,0.405,0.941,0.429,3.184,0.448  c1.841,0.016,4.133,0.036,5.387,0.458c1.536,0.517,2.36,0.247,2.854,0.087c0.041-0.014,0.091-0.03,0.133-0.042  C92.85,22.859,92.834,22.908,92.816,22.948z"/>
<path d="M63.079,16.26l0.004,0.19c0-0.016,0.002-0.028,0.003-0.043c-0.001-0.05-0.002-0.09-0.002-0.147H63.079z"/>
<path d="M3.872,93.51l-0.207,0.283c0.625,0.456,1.157,0.682,1.608,0.682c0.154,0,0.299-0.026,0.436-0.078  c0.409-0.157,0.618-0.52,0.672-0.781l-0.595-0.087C5.757,93.536,5.177,94.323,3.872,93.51z"/>
<path d="M28.681,61.282c-0.582,1-1.713,2.503-2.622,3.711c-0.913,1.213-1.481,1.976-1.662,2.355c-0.393,0.827-3.889,5.313-4.4,5.648  c-0.395,0.259-1.404,1.696-3.612,4.914c-1.122,1.634-2.517,3.668-2.746,3.878c-0.286,0.164-0.649,0.637-1.542,1.845  c-0.747,1.01-1.476,2.443-1.982,2.814c-1.101,0.804-2.043,2.971-2.146,3.226l0.354,0.145c0.252-0.621,1.441-2.198,2.182-2.739  c0.631-0.462,1.569-1.731,2.396-2.852c0.478-0.646,1.072-1.451,1.239-1.573c0.283-0.164,0.771-0.828,3.069-4.178  c1.267-1.847,3.001-4.375,3.335-4.644c0.792-0.519,4.37-5.245,4.755-6.055c0.147-0.308,0.865-1.262,1.559-2.184  c0.973-1.293,2.075-2.759,2.687-3.809c1.054-1.81,6.987-9.378,7.05-9.451l-0.406-0.352C35.928,52.285,29.782,59.392,28.681,61.282z"/>
</svg>