<svg xmlns="http://www.w3.org/2000/svg" xmlns:xlink="http://www.w3.org/1999/xlink" version="1.1" id="Layer_1" x="0px" y="0px" width="78.275px" height="100px" viewBox="0 0 78.275 100" enable-background="new 0 0 78.275 100" xml:space="preserve">
<path d="M70.048,37.204h-0.426c0,0,0.117-3.759-0.15-5.463c-0.535-3.425-4.141-3.738-9.949-3.738H16.75  c-5.808,0-9.312,0.336-9.96,3.738c-0.371,1.948-0.138,5.463-0.138,5.463H6.214c-1.323,0-2.3,1.495-2.3,3.554  c0,1.84,0.771,3.209,1.875,3.497v40.221C5.789,91.457,7.387,95,16.14,95h43.994c8.753,0,10.351-3.543,10.351-10.524V44.255  c1.104-0.288,1.863-1.656,1.863-3.497C72.348,38.7,71.382,37.204,70.048,37.204z M16.75,30.304h42.774  c4.187,0,7.936-0.288,7.936,4.026H8.802C8.802,30.016,12.551,30.304,16.75,30.304z M67.322,36.629v0.575H8.951v-0.575H67.322z   M68.185,84.476c0,6.268-1.116,8.224-8.051,8.224H16.14c-6.947,0-8.051-1.955-8.051-8.224V44.324h60.096V84.476z M69.806,42.024  H6.467c-0.104-0.207-0.253-0.633-0.253-1.265c0-0.621,0.15-1.058,0.253-1.254h63.339c0.103,0.196,0.241,0.633,0.241,1.254  C70.048,41.391,69.91,41.817,69.806,42.024z"/>
<path d="M10.389,84.476c0,5.254,0.32,5.923,5.751,5.923h43.994c5.431,0,5.751-0.669,5.751-5.923V65.959c0,0-0.006-4.86-4.152-4.601  c-4.601,0.288-4.891,5.122-14.952,5.751c-9.201,0.575-23.601-15.18-32.492-15.815c-4.03-0.288-3.899,2.875-3.899,2.875v30.307  H10.389z"/>
<path d="M58.837,45.474l-1.959,7.024c-3.005,0.075-6.03,2.828-7.832,8.923c-0.31,1.048-0.56,2.137-0.761,3.235  c4.137-0.526,6.016-1.912,7.689-3.153c1.434-1.063,2.925-2.151,5.234-2.398c-0.029-0.07-0.06-0.147-0.105-0.258  c-0.046-0.141-0.12-0.301-0.219-0.476c-0.094-0.176-0.185-0.38-0.328-0.572c-0.13-0.201-0.273-0.412-0.453-0.608  c-0.16-0.215-0.372-0.392-0.577-0.588c-0.201-0.199-0.461-0.338-0.69-0.514c-0.259-0.125-0.465-0.289-0.786-0.383l-0.416-0.164  l-0.425-0.104c-0.285-0.047-0.567-0.114-0.847-0.111c-0.28-0.016-0.551-0.005-0.813,0.019c-0.259,0.032-0.508,0.073-0.735,0.124  c-0.223,0.07-0.442,0.106-0.618,0.185c-0.179,0.075-0.348,0.114-0.478,0.189c-0.267,0.124-0.42,0.195-0.42,0.195  s0.126-0.121,0.346-0.334c0.106-0.11,0.263-0.21,0.439-0.336c0.175-0.136,0.388-0.234,0.622-0.355  c0.235-0.108,0.5-0.211,0.785-0.284c0.286-0.069,0.592-0.136,0.911-0.14c0.318-0.025,0.648-0.002,0.975,0.05l0.491,0.105  l0.473,0.165c0.288,0.089,0.604,0.308,0.898,0.471c0.271,0.204,0.532,0.409,0.749,0.652c0.221,0.239,0.422,0.48,0.57,0.748  c0.173,0.245,0.288,0.513,0.384,0.762c0.116,0.237,0.164,0.485,0.216,0.695c0.061,0.207,0.086,0.396,0.093,0.556  c0.01,0.128,0.017,0.226,0.022,0.305c0.108-0.011,0.207-0.03,0.318-0.037c0.157-0.01,0.309-0.015,0.458-0.015  c0.184,0,0.355,0.017,0.529,0.031c-0.111-2.724-1.089-4.625-2.614-5.668l2.48-7.936C62.443,45.474,58.837,45.474,58.837,45.474z"/>
<polygon points="60.119,40.873 63.88,40.873 63.948,40.655 60.18,40.655 "/>
<path d="M72.573,5.078c-0.848-0.251-2.486,0.106-2.768,1.062l-5.811,20.841c1.477,0.13,2.833,0.397,3.936,0.936l6.389-20.441  C74.601,6.519,73.421,5.328,72.573,5.078z"/>
<path d="M62.733,31.501l-0.468,1.678h3.913C65.863,32.081,64.902,31.635,62.733,31.501z"/>
</svg>