<svg xmlns="http://www.w3.org/2000/svg" xmlns:xlink="http://www.w3.org/1999/xlink" version="1.1" x="0px" y="0px" viewBox="-255 347 100 100" enable-background="new -255 347 100 100" xml:space="preserve"><path fill-rule="evenodd" clip-rule="evenodd" d="M-239,432v-69h69v69H-239z M-173.8,366.8h-61.3v61.3h61.3V366.8z M-219.8,372.6  c5.3,0,9.6,4.3,9.6,9.6c0,5.3-4.3,9.6-9.6,9.6s-9.6-4.3-9.6-9.6C-229.4,376.9-225.1,372.6-219.8,372.6z M-223,409.3l3.2-6l3.2,6  l6.4,1.3l-4.5,5l0.8,6.8l-5.9-2.9l-5.9,2.9l0.8-6.8l-4.5-5L-223,409.3z M-179.6,391.8h-19.2l9.6-19.2L-179.6,391.8z M-179.6,422.4  h-19.2v-19.2h19.2V422.4z"></path></svg>