<svg xmlns="http://www.w3.org/2000/svg" xmlns:xlink="http://www.w3.org/1999/xlink" version="1.1" id="Layer_1" x="0px" y="0px" width="100px" height="100px" viewBox="0 0 100 100" enable-background="new 0 0 100 100" xml:space="preserve">
<g>
	<path fill="#000000" stroke="#231F20" stroke-miterlimit="10" d="M68.314,95.993c-0.511,0-1.024-0.014-1.545-0.04   c-9.509-0.488-17.365-5.142-22.72-13.458c-2.063-3.203-3.733-6.128-5.106-8.941c-3.205-6.566-7.415-11.604-12.871-15.398   c-3.497-2.432-6.427-4.728-8.959-7.017C11.31,45.89,7.123,38.397,5.627,30.582c-1.166-6.09-1.282-15.23,4.781-24.192l0.089-0.132   h1.043l0.083,0.068c0.672,0.555,1.445,0.63,2.112,0.63c0.277,0,0.555-0.015,0.832-0.029l0.68-0.03   c4.789-0.192,19.22-0.64,19.22-0.64s0.384,0.532,0.424,0.555c6.48,1.856,10.222,6.835,12.758,10.965   c2.242,3.652,4.416,7.237,6.359,10.933c3.343,6.356,8.216,10.781,14.897,13.527c2.806,1.153,5.299,2.284,7.622,3.457   c8.127,4.102,13.4,10.648,15.674,19.457c0.127,0.491,0.868,10.116-0.104,13.905c-0.467,1.812-0.969,3.56-1.985,5.05   C84.803,91.883,77.267,95.993,68.314,95.993z M10.817,6.857C3.173,18.299,2.92,37.494,17.516,50.693   c2.513,2.272,5.424,4.552,8.899,6.97c5.542,3.854,9.817,8.967,13.067,15.627c1.363,2.792,3.022,5.697,5.072,8.881   c5.245,8.146,12.938,12.705,22.246,13.183c9.41,0.492,17.326-3.545,22.814-11.585c0.964-1.412,1.431-3.037,1.899-4.861   c0.931-3.621,0.224-13.065,0.105-13.609c-2.229-8.631-7.397-15.047-15.362-19.068c-2.31-1.166-4.789-2.29-7.581-3.438   c-6.816-2.801-11.789-7.316-15.2-13.803c-1.935-3.679-4.103-7.254-6.339-10.898c-3.681-5.997-7.512-9.298-12.419-10.705   c-0.237-0.068-0.375-0.278-0.498-0.463c-0.015-0.022-0.029-0.044-0.043-0.065c-3.069,0.015-14.201,0.45-18.905,0.639l-0.674,0.03   c-0.287,0.015-0.575,0.029-0.862,0.029c-0.703,0-1.605-0.082-2.408-0.699L10.817,6.857L10.817,6.857z"/>
</g>
<g>
	<path d="M50.572,53.862l-0.509-0.316c3.971-6.378,12.626-11.953,25.021-8.478l-0.162,0.578   C62.85,42.258,54.429,47.67,50.572,53.862z"/>
</g>
<path fill="#000000" d="M79.494,49.688c-0.107-0.138-0.209-0.325-0.367-0.465c-1.935-1.722-8.628-1.979-11.128-1.068  c-1.358,0.495-4.348,1.253-4.817,1.581c-0.862,0.603-0.594,0.834,0.352,1.052c0.993,0.228,5.373-0.899,9.905,0.488  c1.312,0.401,2.9,1.696,3.831,0.742C78.002,51.269,78.995,50.708,79.494,49.688z"/>
<path fill="#000000" d="M34.273,9.964c-0.103-0.127-0.201-0.298-0.351-0.426c-1.838-1.564-8.451-2.328-10.376-0.775  c-0.412,0.332-0.806,0.681-1.236,0.995c-0.789,0.578-0.534,0.788,0.351,0.972c0.929,0.193,6.298,1.113,7.004,1.598  c1.054,0.723,1.745,0.753,2.591-0.154C32.919,11.465,33.831,10.923,34.273,9.964z"/>
<path fill="#000000" d="M37.583,17.042c-0.201-0.118-1.477-1.269-1.708-1.375c-1.031-0.474-2.081-0.981-3.125-1.375  c-1.649-0.623-4.499-1.074-4.185,1.31c0.102,0.773,4.533,2.508,4.873,2.683C35.875,19.792,37.587,17.864,37.583,17.042z"/>
<path fill="#000000" d="M85.957,70.199c0.388,1.102,1.231,2.467-1.582,3c-0.567,0.107-3.547-7.522-4.935-9.366  c0.853,0.173,2.831-0.32,3.262-0.666C83.422,63.964,85.103,67.773,85.957,70.199z"/>
<path fill="#000000" d="M58.126,41.53c0.821,0.769,2.139,1.558,0.035,3.275c-0.424,0.346-6.35-4.843-8.339-5.798  c0.789-0.235,2.215-1.543,2.419-2.032C53.2,37.334,56.32,39.839,58.126,41.53z"/>
<path fill="#000000" d="M40.138,17c-1.179-1.101-0.68-0.875-0.685-1.771c0.383-1.062,1.681-1.531,2.382-1.462  c0.654,0.065,4.249,5.324,3.998,6.066c-0.364,1.077-0.496,1.772-1.465,2.261C43.815,20.953,40.554,17.509,40.138,17z"/>
<path fill="#000000" d="M83.487,52.862c-0.422,0.831-1.081,1.202-1.607,1.768c-0.67,0.722-1.105,0.591-1.667-0.243  c-0.377-0.559-1.02-0.864-1.581-1.183c-0.534-0.304-0.665-0.539-0.079-0.961c0.319-0.23,0.621-0.498,0.931-0.747  c1.451-1.166,2.907-0.822,3.842,0.916C83.403,52.553,83.441,52.728,83.487,52.862z"/>
<path fill="#000000" d="M71.774,52.27c2.095,0.486,2.619,0.879,0.93,1.56c-2.444,0.986-1.386,0.287-3.766,1.292  c-0.61,0.122-1.218,0.245-1.827,0.368c-2.432-0.787-11.517-0.339-11.477-1.383C55.78,50.461,69.362,51.711,71.774,52.27z"/>
<path fill="#000000" d="M49.283,37.741c-1.471-1.053,1.654-8.803,1.339-11.263c0.62-0.85,1.412,1.096,1.517,2.37  C52.261,30.315,51.696,38.261,49.283,37.741z"/>
<path fill="#000000" d="M10.198,12.677c0.864-1.845,0.381-0.66,1.166-2.629c0.268-0.322,0.985-1.096,1.607-0.991  c1.204,0.017,2.131-0.038,3.336-0.047l0.191,0.788c-1.474-0.172-0.727,0.295-0.925,0.267c-0.449-0.062-2.825-0.628-3.087-0.015  c-0.225,0.526-1.581,5.541-1.581,5.541C10.325,15.19,10.51,12.816,10.198,12.677z"/>
<path fill="#000000" d="M44.543,24.247c-0.189,1.001-0.692,2.544-1.979,2.176c-1.372-0.904-4.272-4.104-5.561-5.852  c-0.188-1.431,1.066-1.845,2.323-1.91C40.763,19.312,43.548,22.683,44.543,24.247z"/>
<path fill="#000000" d="M85.796,62.385c-1.06,0.199-1.558-0.706-2.026-1.855c-0.471-1.156-1.104-2.209-1.691-3.285  c-0.344-0.63-0.669-1.447-0.194-1.914c0.749-0.636,1.369-1.414,2.178-1.789c0.142-0.066,0.337-0.018,0.492,0.04  c1.359,0.504,4.211,5.468,3.623,7.133C87.819,61.731,86.862,62.246,85.796,62.385z"/>
<path fill="#000000" d="M85.287,79.788c-0.217-0.792-0.121-2.394-0.153-2.87c-0.105-1.573-0.311-2.03-0.088-2.047  c0.333-0.025,1.658-0.799,2.042-1.26c0.137-0.165,1.069,4.875,0.605,5.244C87.41,79.082,85.924,79.802,85.287,79.788z"/>
<path fill="#000000" d="M38.754,14.653c-0.656,0.777-1.316,0.694-2.084,0.186c-0.773-0.511-1.618-0.853-2.44-1.239  c-0.482-0.226-0.642-0.612-0.494-1.219c0.272-0.889,0.949-1.365,1.363-2.111c0.073-0.131,0.226-0.215,0.356-0.27  c1.135-0.474,4.028,1.594,4.266,3.093C39.865,14.008,38.931,13.985,38.754,14.653z"/>
<path fill="#000000" d="M84.065,85.34c0.241-0.544,0.442-1.634,0.505-3.597c0.022-0.677,2.431-0.882,2.764-1.066  c0.065-0.036-0.293,1.589-0.484,2.181c-0.681,2.103-3.476,5.728-4.192,5.789C82.222,88.684,83.183,87.331,84.065,85.34z"/>
<path fill="#000000" d="M51.376,54.786c-0.111-0.709,2.74-4.29,4.619-5.455c0.528-0.327,2.021-1.063,2.002-0.991  c-0.099,0.367,0.278,2.756-0.373,2.939c-1.891,0.53-2.902,0.987-3.372,1.351C52.529,53.962,51.444,55.219,51.376,54.786z"/>
<path fill="#000000" d="M15.25,11c0.417-0.585,6.587,0.456,11.166,1.603c0.606,0.136,2.188,0.654,2.124,0.692  c-0.328,0.193-1.729,2.164-2.323,1.838c-1.722-0.944-2.006-1.499-3.258-1.868C18.712,11.827,14.996,11.357,15.25,11z"/>
<path fill="#000000" d="M88.652,61.081c0.721,0.358,1.722,2.684,2.015,5.936c-0.299,0.986-1.935,2.02-2.791,2.699  c-0.637-1.315-1.185-4.486-2.414-5.975C86.522,63.402,88.321,62.076,88.652,61.081z"/>
<path fill="#000000" d="M88.117,71.747c-0.309-0.95,2.916-3.689,3.054-3.351c0.212,0.593,0.155,3.993-0.068,5.325  c-0.092,1.067-0.406,2.334-0.552,2.864c-0.582,2.111-3.1,9.285-4.614,9.867C85.991,85.885,90.631,79.472,88.117,71.747z"/>
<path fill="#000000" d="M11.669,36.489c-0.714-1.168-0.485,1.465-0.341,2.128c0.424,0.691,2.111,2.863,2.534,3.555  c1.018,1.547,1.084,1.286,2.322,2.931c1.714,2.278,8.503,8.744,9.874,7.153C25.632,51.588,20.118,50.306,11.669,36.489z"/>
<path fill="#000000" d="M44,29.596c0-0.154-0.065-0.392,0.008-0.572c0.785-1.93,1.44-3.907,1.723-5.99  c0.133-0.973,0.28-1.165,1.183-1.138c0.475,0.014,1.17,0.754,1.259,1.452c0.299,2.34-0.305,4.44-1.39,6.408  C46.432,30.391,44.452,30.28,44,29.596z"/>
<path fill="#000000" d="M59.452,49.027c0.18-0.022,0.457-0.016,0.668-0.089c2.27-0.776,4.59-1.476,7.029-1.959  c1.14-0.226,1.366-0.346,1.352-0.909c-0.007-0.296-0.858-0.624-1.671-0.578c-2.727,0.155-5.191,0.841-7.51,1.81  C58.57,47.617,58.661,48.843,59.452,49.027z"/>
<path fill="#000000" d="M79.291,62.429c-0.142-0.108-0.398-0.207-0.524-0.413c-1.355-2.205-5.919-3.572-7.69-5.349  c-0.828-0.83,4.023-3.517,4.717-3.119c2.326,1.336,5.21,5.277,6.436,7.828C82.627,62.203,80.171,62.43,79.291,62.429z"/>
<path fill="#000000" d="M61.289,43.232c-1.388-2.369-6.903-5.671-8.717-7.58c0.583-2.646,0.325-5.202,1.036-4.774  c1.758,3.044,6.913,9.668,13.058,11.907C67.073,43.673,63.58,43.591,61.289,43.232z"/>
<path fill="#000000" d="M65.851,30.308"/>
<path fill="#000000" d="M48.194,29.722c0.987-3.637,0.968-5,0.887-9.405c1.567,3.883,0.364,10.455-2.357,13.774"/>
<path fill="#000000" d="M23.147,8.208C22.98,7.6,22.369,8.105,21.712,8.213c-1.912,0.314-5.744,0.534-7.627,1.209  c0,0.766,4.861,1.182,7.095,0.475C21.18,9.896,23.147,8.208,23.147,8.208z"/>
<path fill="#000000" d="M9.184,27.37c0.493,6.872,1.881,7.12,2.86,9.993c0,0,0.005,2.763-1.346,0.275  c-0.032-0.059-1.757-3.47-2.348-6.95c-1.594-6.039,1.514-16.704,1.847-18.011c1.317-1.845,1.326-0.401,1.317-0.097  C10.832,17.507,8.868,22.966,9.184,27.37z"/>
</svg>