<svg xmlns="http://www.w3.org/2000/svg" xmlns:xlink="http://www.w3.org/1999/xlink" version="1.1" id="Layer_1" x="0px" y="0px" width="100px" height="100px" viewBox="0 0 100 100" enable-background="new 0 0 100 100" xml:space="preserve">
<path d="M63.446,37.205c-2.188-5.69-4.079-10.604-4.079-12.818c0-2.432,0.408-5.306,1.185-8.371h2.021  c0.708,0,1.319-0.495,1.467-1.187l0.867-4.057c0.095-0.442-0.016-0.904-0.301-1.257c-0.284-0.352-0.713-0.557-1.166-0.557H36.561  c-0.453,0-0.881,0.204-1.166,0.556S35,10.328,35.094,10.771l0.861,4.057c0.147,0.692,0.759,1.188,1.467,1.188h2.025  c0.772,3.059,1.178,5.934,1.178,8.371c0,2.215-1.889,7.129-4.077,12.818c-4.02,10.456-9.525,24.776-9.525,37.629  c0,13.344,0.614,16.207,7.12,16.207h31.715c6.507,0,7.12-2.863,7.12-16.207C72.978,61.981,67.469,47.661,63.446,37.205z   M36.144,62.182h27.71v7.08h-27.71V62.182z M38.637,13.016l-0.224-1.057h23.172l-0.226,1.057h-1.961  c-0.674,0-1.265,0.449-1.445,1.098c-0.244,0.88-0.454,1.737-0.643,2.579c-0.06,0.267-0.105,0.524-0.16,0.787  c-0.117,0.571-0.226,1.136-0.316,1.688c-0.049,0.297-0.089,0.587-0.13,0.879c-0.071,0.507-0.131,1.005-0.178,1.495  c-0.028,0.286-0.055,0.572-0.074,0.853c-0.012,0.161-0.034,0.331-0.043,0.489H43.583c-0.009-0.16-0.031-0.331-0.042-0.494  c-0.02-0.279-0.046-0.564-0.074-0.851c-0.047-0.491-0.107-0.991-0.178-1.499c-0.041-0.29-0.081-0.58-0.128-0.875  c-0.09-0.554-0.199-1.12-0.316-1.691c-0.054-0.262-0.1-0.519-0.159-0.783c-0.188-0.842-0.396-1.698-0.64-2.576  c-0.18-0.649-0.771-1.099-1.445-1.099H38.637z M43.476,25.884h13.041c0.459,2.835,2.044,6.977,4.13,12.398  c0.188,0.491,0.384,0.998,0.578,1.506H38.77c0.195-0.508,0.389-1.015,0.578-1.506C41.433,32.86,43.017,28.719,43.476,25.884z"/>
</svg>