<?xml version="1.0"?>
<svg version="1.1" xmlns="http://www.w3.org/2000/svg" xmlns:xlink="http://www.w3.org/1999/xlink" width="100" height="100">
    <desc iVinci="yes" version="4.6" gridStep="20" showGrid="no" snapToGrid="no" codePlatform="0"/>
    <g id="Layer1" name="Layer 1" opacity="1">
        <g id="Shape1">
            <desc shapeID="1" type="0" basicInfo-basicType="0" basicInfo-roundedRectRadius="12" basicInfo-polygonSides="6" basicInfo-starPoints="5" bounding="rect(-9.95,-9.7,19.9,19.4)" text="" font-familyName="" font-pixelSize="20" font-bold="0" font-underline="0" font-alignment="1" strokeStyle="0" markerStart="0" markerEnd="0" shadowEnabled="0" shadowOffsetX="0" shadowOffsetY="2" shadowBlur="4" shadowOpacity="160" blurEnabled="0" blurRadius="4" transform="matrix(0.510114,0,0,0.510114,61.4521,60.7124)" pers-center="0,0" pers-size="0,0" pers-start="0,0" pers-end="0,0" locked="0" mesh="" flag=""/>
            <path id="shapePath1" d="M66.5277,64.1812 L63.8241,61.6306 C64.1302,61.0695 64.3342,60.4063 64.3342,59.7432 C64.3342,57.5497 62.5488,55.7643 60.3553,55.7643 C58.1618,55.7643 56.3764,57.5497 56.3764,59.7432 C56.3764,61.9367 58.1618,63.7221 60.3553,63.7221 C61.1205,63.7221 61.8347,63.467 62.4468,63.1099 L65.1504,65.6605 C65.5585,65.0994 66.0176,64.5893 66.5277,64.1812 Z" style="stroke:none;fill-rule:nonzero;fill:#000000;fill-opacity:1;"/>
        </g>
        <g id="Shape2">
            <desc shapeID="2" type="0" basicInfo-basicType="0" basicInfo-roundedRectRadius="12" basicInfo-polygonSides="6" basicInfo-starPoints="5" bounding="rect(-10.15,-13.55,20.3,27.1)" text="" font-familyName="" font-pixelSize="20" font-bold="0" font-underline="0" font-alignment="1" strokeStyle="0" markerStart="0" markerEnd="0" shadowEnabled="0" shadowOffsetX="0" shadowOffsetY="2" shadowBlur="4" shadowOpacity="160" blurEnabled="0" blurRadius="4" transform="matrix(0.510114,0,0,0.510114,81.3975,56.912)" pers-center="0,0" pers-size="0,0" pers-start="0,0" pers-end="0,0" locked="0" mesh="" flag=""/>
            <path id="shapePath2" d="M77.9033,63.8241 L81.4741,57.8047 C81.8311,57.9068 82.1882,57.9578 82.5963,57.9578 C84.7898,57.9578 86.5752,56.1724 86.5752,53.9789 C86.5752,51.7854 84.7898,50 82.5963,50 C80.4028,50 78.6174,51.7854 78.6174,53.9789 C78.6174,55.0501 79.0765,56.0704 79.7907,56.7845 L76.2199,62.8039 C76.781,63.1099 77.3421,63.416 77.9033,63.8241 Z" style="stroke:none;fill-rule:nonzero;fill:#000000;fill-opacity:1;"/>
        </g>
        <g id="Shape3">
            <desc shapeID="3" type="0" basicInfo-basicType="0" basicInfo-roundedRectRadius="12" basicInfo-polygonSides="6" basicInfo-starPoints="5" bounding="rect(-12.6,-7.85,25.2,15.7)" text="" font-familyName="" font-pixelSize="20" font-bold="0" font-underline="0" font-alignment="1" strokeStyle="0" markerStart="0" markerEnd="0" shadowEnabled="0" shadowOffsetX="0" shadowOffsetY="2" shadowBlur="4" shadowOpacity="160" blurEnabled="0" blurRadius="4" transform="matrix(0.510114,0,0,0.510114,87.7485,72.8786)" pers-center="0,0" pers-size="0,0" pers-start="0,0" pers-end="0,0" locked="0" mesh="" flag=""/>
            <path id="shapePath3" d="M90.197,68.8742 C88.4626,68.8742 87.0343,69.9455 86.4732,71.4758 L81.5251,71.0167 C81.5251,71.0677 81.5251,71.0677 81.5251,71.1187 C81.5251,71.7819 81.4741,72.394 81.321,73.0062 L86.2691,73.5163 C86.5752,75.4037 88.2076,76.883 90.197,76.883 C92.3905,76.883 94.1759,75.0976 94.1759,72.9041 C94.1759,70.6596 92.3905,68.8742 90.197,68.8742 Z" style="stroke:none;fill-rule:nonzero;fill:#000000;fill-opacity:1;"/>
        </g>
        <g id="Shape4">
            <desc shapeID="4" type="0" basicInfo-basicType="0" basicInfo-roundedRectRadius="12" basicInfo-polygonSides="6" basicInfo-starPoints="5" bounding="rect(-7.8,-12.55,15.6,25.1)" text="" font-familyName="" font-pixelSize="20" font-bold="0" font-underline="0" font-alignment="1" strokeStyle="0" markerStart="0" markerEnd="0" shadowEnabled="0" shadowOffsetX="0" shadowOffsetY="2" shadowBlur="4" shadowOpacity="160" blurEnabled="0" blurRadius="4" transform="matrix(0.510114,0,0,0.510114,76.4239,86.0906)" pers-center="0,0" pers-size="0,0" pers-start="0,0" pers-end="0,0" locked="0" mesh="" flag=""/>
            <path id="shapePath4" d="M76.5259,84.5347 L75.4037,79.6887 C74.7915,79.8927 74.1284,80.0457 73.4653,80.1478 L74.5875,84.9938 C73.3122,85.657 72.445,86.9833 72.445,88.5136 C72.445,90.7071 74.2304,92.4925 76.4239,92.4925 C78.6174,92.4925 80.4028,90.7071 80.4028,88.5136 C80.3518,86.3712 78.6684,84.6368 76.5259,84.5347 Z" style="stroke:none;fill-rule:nonzero;fill:#000000;fill-opacity:1;"/>
        </g>
        <g id="Shape5">
            <desc shapeID="5" type="0" basicInfo-basicType="0" basicInfo-roundedRectRadius="12" basicInfo-polygonSides="6" basicInfo-starPoints="5" bounding="rect(-13.85,-8.05,27.7,16.1)" text="" font-familyName="" font-pixelSize="20" font-bold="0" font-underline="0" font-alignment="1" strokeStyle="0" markerStart="0" markerEnd="0" shadowEnabled="0" shadowOffsetX="0" shadowOffsetY="2" shadowBlur="4" shadowOpacity="160" blurEnabled="0" blurRadius="4" transform="matrix(0.510114,0,0,0.510114,57.0651,77.1126)" pers-center="0,0" pers-size="0,0" pers-start="0,0" pers-end="0,0" locked="0" mesh="" flag=""/>
            <path id="shapePath5" d="M63.467,73.0062 L57.2946,75.0976 C56.5805,74.0264 55.3562,73.2612 53.9789,73.2612 C51.7854,73.2612 50,75.0466 50,77.2401 C50,79.4336 51.7854,81.219 53.9789,81.219 C56.1724,81.219 57.9578,79.4336 57.9578,77.2401 C57.9578,77.1381 57.9578,77.0871 57.9068,76.9851 L64.1302,74.8936 C63.8751,74.3325 63.6201,73.7203 63.467,73.0062 Z" style="stroke:none;fill-rule:nonzero;fill:#000000;fill-opacity:1;"/>
        </g>
        <g id="Shape6">
            <desc shapeID="6" type="0" basicInfo-basicType="0" basicInfo-roundedRectRadius="12" basicInfo-polygonSides="6" basicInfo-starPoints="5" bounding="rect(-13.4,-13.4,26.8,26.8)" text="" font-familyName="" font-pixelSize="20" font-bold="0" font-underline="0" font-alignment="1" strokeStyle="0" markerStart="0" markerEnd="0" shadowEnabled="0" shadowOffsetX="0" shadowOffsetY="2" shadowBlur="4" shadowOpacity="160" blurEnabled="0" blurRadius="4" transform="matrix(0.510114,0,0,0.510114,72.394,71.1187)" pers-center="0,0" pers-size="0,0" pers-start="0,0" pers-end="0,0" locked="0" mesh="" flag=""/>
            <path id="shapePath6" d="M79.2296,71.1187 C79.2296,74.8939 76.1692,77.9543 72.394,77.9543 C68.6189,77.9543 65.5585,74.8939 65.5585,71.1187 C65.5585,67.3436 68.6189,64.2832 72.394,64.2832 C76.1692,64.2832 79.2296,67.3436 79.2296,71.1187 Z" style="stroke:none;fill-rule:evenodd;fill:#000000;fill-opacity:1;"/>
        </g>
        <g id="Shape7">
            <desc shapeID="7" type="0" basicInfo-basicType="0" basicInfo-roundedRectRadius="12" basicInfo-polygonSides="6" basicInfo-starPoints="5" bounding="rect(-23.6825,-11.8425,47.365,23.685)" text="" font-familyName="" font-pixelSize="20" font-bold="0" font-underline="0" font-alignment="1" strokeStyle="0" markerStart="0" markerEnd="0" shadowEnabled="0" shadowOffsetX="0" shadowOffsetY="2" shadowBlur="4" shadowOpacity="160" blurEnabled="0" blurRadius="4" transform="matrix(0.842285,0,0,0.842285,30.2952,43.7656)" pers-center="0,0" pers-size="0,0" pers-start="0,0" pers-end="0,0" locked="0" mesh="" flag=""/>
            <path id="shapePath7" d="M30.2939,53.7403 C41.3119,53.7403 50.2426,44.8087 50.2426,33.7908 L10.3478,33.7908 C10.3478,44.8096 19.2769,53.7403 30.2939,53.7403 Z" style="stroke:none;fill-rule:nonzero;fill:#000000;fill-opacity:1;"/>
        </g>
        <g id="Shape8">
            <desc shapeID="8" type="0" basicInfo-basicType="0" basicInfo-roundedRectRadius="12" basicInfo-polygonSides="6" basicInfo-starPoints="5" bounding="rect(-34.284,-49.5085,68.568,99.017)" text="" font-familyName="" font-pixelSize="20" font-bold="0" font-underline="0" font-alignment="1" strokeStyle="0" markerStart="0" markerEnd="0" shadowEnabled="0" shadowOffsetX="0" shadowOffsetY="2" shadowBlur="4" shadowOpacity="160" blurEnabled="0" blurRadius="4" transform="matrix(0.842285,0,0,0.842285,30.2948,52.4959)" pers-center="0,0" pers-size="0,0" pers-start="0,0" pers-end="0,0" locked="0" mesh="" flag=""/>
            <path id="shapePath8" d="M36.7357,86.1279 C34.9198,85.8979 33.5132,84.3515 33.5132,82.4715 L33.5132,65.4784 C33.5132,64.0903 34.5357,62.9406 35.8665,62.7402 C35.8682,62.7402 35.8623,62.7334 35.8631,62.7326 C49.1291,60.1299 59.1717,48.4171 59.1717,34.3989 C59.1717,28.5872 57.5772,18.5336 54.3985,10.7956 L48.804,10.7956 C51.9668,17.3587 54.022,27.8401 54.022,34.3989 C54.022,47.4813 43.3772,58.1261 30.2948,58.1261 C17.2116,58.1261 6.5676,47.4813 6.5676,34.3989 C6.5676,28.3168 9.16353,17.549 12.766,10.7956 L7.0536,10.7956 C3.46378,18.6667 1.41787,28.8584 1.41787,34.3989 C1.41787,48.423 11.4705,60.1409 24.7458,62.7359 C24.7467,62.7359 24.7433,62.7402 24.7441,62.7402 C25.9983,62.9297 26.9678,63.964 27.0764,65.2451 L27.0764,82.5035 C27.0764,82.5069 27.0756,82.5094 27.0756,82.5128 C27.0756,84.4071 25.6479,85.9679 23.81,86.1784 C23.7923,86.1801 23.7789,86.1986 23.7671,86.229 C13.6883,87.2557 6.34103,90.432 6.34103,94.1962 L55.229,94.1962 C55.229,90.2997 47.3595,87.0317 36.7357,86.1279 Z" style="stroke:none;fill-rule:nonzero;fill:#000000;fill-opacity:1;"/>
        </g>
    </g>
</svg>
